HIERARCHY
ROOT Hips
{
  OFFSET 0.000000 0.000000 0.000000
  CHANNELS 6 Xposition Yposition Zposition Zrotation Yrotation Xrotation
  JOINT Spine
  {
    OFFSET -0.022549 1.907644 -0.166052
    CHANNELS 3 Zrotation Yrotation Xrotation
    JOINT Spine1
    {
      OFFSET -0.003648 1.921501 -0.048982
      CHANNELS 3 Zrotation Yrotation Xrotation
      JOINT Spine2
      {
        OFFSET 0.006489 1.931144 0.029434
        CHANNELS 3 Zrotation Yrotation Xrotation
        JOINT Neck
        {
          OFFSET 0.003717 1.591703 0.086942
          CHANNELS 3 Zrotation Yrotation Xrotation
          JOINT Head
          {
            OFFSET 0.042114 1.608349 -0.038029
            CHANNELS 3 Zrotation Yrotation Xrotation
            End Site
            {
              OFFSET 0 0 0
            }
          }
        }
        JOINT LeftShoulder
        {
          OFFSET 3.693241 0.963159 0.190769
          CHANNELS 3 Zrotation Yrotation Xrotation
          JOINT LeftArm
          {
            OFFSET 4.877960 -0.000000 -0.000000
            CHANNELS 3 Zrotation Yrotation Xrotation
            JOINT LeftForeArm
            {
              OFFSET 3.231690 -0.000000 0.000000
              CHANNELS 3 Zrotation Yrotation Xrotation
              JOINT LeftHand
              {
                OFFSET 0.731324 -0.000000 0.000000
                CHANNELS 3 Zrotation Yrotation Xrotation
                JOINT LeftHandIndex1
                {
                  OFFSET 0.589612 -0.000000 0.000000
                  CHANNELS 3 Zrotation Yrotation Xrotation
                  End Site
                  {
                    OFFSET 0 0 0
                  }
                }
              }
            }
          }
        }
        JOINT RightShoulder
        {
          OFFSET -3.661026 0.751452 0.082811
          CHANNELS 3 Zrotation Yrotation Xrotation
          JOINT RightArm
          {
            OFFSET -4.914300 -0.000000 0.000000
            CHANNELS 3 Zrotation Yrotation Xrotation
            JOINT RightForeArm
            {
              OFFSET -3.290930 -0.000000 0.000000
              CHANNELS 3 Zrotation Yrotation Xrotation
              JOINT RightHand
              {
                OFFSET -0.545120 -0.000000 0.000000
                CHANNELS 3 Zrotation Yrotation Xrotation
                JOINT RightHandIndex1
                {
                  OFFSET -0.439490 -0.000000 0.000000
                  CHANNELS 3 Zrotation Yrotation Xrotation
                  End Site
                  {
                    OFFSET 0 0 0
                  }
                }
              }
            }
          }
        }
      }
    }
  }
  JOINT LeftUpLeg
  {
    OFFSET 2.238894 -6.151315 0.000000
    CHANNELS 3 Zrotation Yrotation Xrotation
    JOINT LeftLeg
    {
      OFFSET 2.651613 -7.285252 0.000000
      CHANNELS 3 Zrotation Yrotation Xrotation
      JOINT LeftFoot
      {
        OFFSET 0.248981 -0.684068 1.572347
        CHANNELS 3 Zrotation Yrotation Xrotation
        JOINT LeftToeBase
        {
          OFFSET 0.000000 -0.000000 0.858383
          CHANNELS 3 Zrotation Yrotation Xrotation
          End Site
          {
            OFFSET 0 0 0
          }
        }
      }
    }
  }
  JOINT RightUpLeg
  {
    OFFSET -2.340706 -6.431043 0.000000
    CHANNELS 3 Zrotation Yrotation Xrotation
    JOINT RightLeg
    {
      OFFSET -2.591130 -7.119077 0.000000
      CHANNELS 3 Zrotation Yrotation Xrotation
      JOINT RightFoot
      {
        OFFSET -0.178671 -0.490893 1.709806
        CHANNELS 3 Zrotation Yrotation Xrotation
        JOINT RightToeBase
        {
          OFFSET -0.000000 -0.000000 0.898614
          CHANNELS 3 Zrotation Yrotation Xrotation
          End Site
          {
            OFFSET 0 0 0
          }
        }
      }
    }
  }
}
MOTION
Frames: 6
Frame Time: 0.00833333
26.318900 15.604500 -0.646293 182.053000 -147.256000 -175.779000 -15.877900 12.009500 -28.284000 0.000000 0.000000 56.423400 -5.790250 0.000000 -29.808700 0.000000 0.000000 -23.744100 -3.618920 4.775110 -37.486400 0.000000 0.000000 64.465400 -3.948470 0.000000 -3.559580 0.000000 0.000000 -29.511000 -3.968710 -1.304500 4.692060 0.107181 -1.890480 4.153390 2.388350 -1.056420 1.782790 -7.210820 -13.594400 4.519810 5.899720 -9.217860 -3.539240 0.000000 -0.000000 0.000000 91.862400 -30.858300 -18.360700 0.000000 0.000000 37.611400 -43.514100 0.000000 -36.365500 0.000000 0.000000 7.125020 0.000000 -0.000000 0.000000 -88.744600 7.004430 -19.081200 0.000000 0.000000 34.359000 -18.255100 0.000000 -17.895700 0.000000 0.000000 7.125020
26.370900 15.625000 -0.614133 182.137000 -147.817000 -175.678000 -16.334200 11.509500 -28.212300 0.000000 0.000000 55.869600 -5.525540 0.000000 -30.109100 0.000000 0.000000 -23.296600 -3.316910 5.231840 -37.489200 0.000000 0.000000 64.484900 -5.244190 0.000000 -4.017290 0.000000 0.000000 -25.938400 -3.931430 -1.379720 4.572490 0.136458 -1.984220 4.082360 2.397770 -1.100950 1.782270 -7.248090 -13.753800 4.612740 5.929530 -9.327900 -3.555810 -0.000000 0.000000 0.000000 91.626100 -30.523600 -18.448400 0.000000 0.000000 35.825500 -42.616400 0.000000 -35.791000 0.000000 0.000000 7.125020 -0.000000 0.000000 0.000000 -88.003100 4.583040 -19.537800 0.000000 0.000000 32.333900 -19.383500 0.000000 -17.456300 0.000000 0.000000 7.125020
26.417900 15.655900 -0.582811 182.161000 -148.531000 -175.489000 -16.731400 10.751700 -28.155900 0.000000 0.000000 55.210900 -5.098640 0.000000 -30.336700 0.000000 0.000000 -23.070500 -2.827750 5.612790 -37.388900 0.000000 0.000000 64.336500 -6.241320 0.000000 -4.569230 0.000000 0.000000 -22.048700 -3.831380 -1.478470 4.427000 0.175371 -2.106540 3.993920 2.381930 -1.157950 1.778020 -7.244080 -13.931000 4.654650 5.941030 -9.447970 -3.556290 0.000000 -0.000000 0.000000 91.371600 -30.136600 -18.503400 0.000000 0.000000 33.981400 -41.398200 0.000000 -35.118100 0.000000 0.000000 7.125020 0.000000 -0.000000 0.000000 -87.156600 2.233040 -20.094800 0.000000 0.000000 30.319300 -20.606300 0.000000 -17.199700 0.000000 0.000000 7.125020
26.459500 15.697100 -0.553339 182.126000 -149.400000 -175.231000 -17.044200 9.744370 -28.107400 0.000000 0.000000 54.468900 -4.576300 0.000000 -30.449300 0.000000 0.000000 -23.051800 -2.146600 5.943290 -37.182800 0.000000 0.000000 64.026700 -6.901730 0.000000 -5.131440 0.000000 0.000000 -18.695300 -3.684280 -1.599720 4.287730 0.225615 -2.258190 3.894450 2.352130 -1.228240 1.759170 -7.205950 -14.126800 4.640260 5.939690 -9.578620 -3.541850 -0.000000 -0.000000 0.000000 91.079800 -29.636400 -18.518200 0.000000 0.000000 32.109700 -39.801000 0.000000 -34.370800 0.000000 0.000000 7.125020 -0.000000 -0.000000 0.000000 -86.215900 -0.021204 -20.749200 0.000000 0.000000 28.319300 -21.912500 0.000000 -17.012700 0.000000 0.000000 7.125020
26.495500 15.747400 -0.526636 182.050000 -150.409000 -174.927000 -17.267700 8.519930 -28.063600 0.000000 0.000000 53.658600 -4.024930 0.000000 -30.408900 0.000000 0.000000 -23.167600 -1.293520 6.248300 -36.896700 0.000000 0.000000 63.581600 -7.235520 0.000000 -5.667060 0.000000 0.000000 -16.479800 -3.493460 -1.720120 4.170880 0.261097 -2.408650 3.789700 2.283230 -1.296390 1.719190 -7.090180 -14.368900 4.592930 5.928920 -9.739790 -3.524690 -0.000000 0.000000 0.000000 90.709300 -29.035200 -18.488800 0.000000 0.000000 30.257500 -37.802700 0.000000 -33.477400 0.000000 0.000000 7.125020 -0.000000 0.000000 0.000000 -85.200600 -2.282620 -21.521700 0.000000 0.000000 26.358200 -23.224500 0.000000 -16.715100 0.000000 0.000000 7.125020
26.525700 15.805200 -0.503060 181.966000 -151.534000 -174.602000 -17.420600 7.140130 -28.022300 0.000000 0.000000 52.788000 -3.541470 0.000000 -30.189600 0.000000 0.000000 -23.224300 -0.306647 6.525080 -36.564000 0.000000 0.000000 63.037400 -7.287820 0.000000 -6.188060 0.000000 0.000000 -15.712000 -3.368250 -1.869620 4.092490 0.345847 -2.601830 3.677360 2.303860 -1.387790 1.657650 -7.043220 -14.615100 4.503450 5.926870 -9.901890 -3.494580 -0.000000 -0.000000 0.000000 90.290900 -28.004800 -18.394400 0.000000 0.000000 28.421600 -35.519100 0.000000 -32.303100 0.000000 0.000000 7.125020 -0.000000 -0.000000 0.000000 -84.053500 -4.377730 -22.409500 0.000000 0.000000 24.474700 -24.452900 0.000000 -16.175100 0.000000 0.000000 7.125020
